<?xml version="1.0" encoding="utf-8"?>
<!-- Generator: Adobe Illustrator 21.1.0, SVG Export Plug-In . SVG Version: 6.00 Build 0)  -->
<svg version="1.1" id="Ebene_1" xmlns="http://www.w3.org/2000/svg" xmlns:xlink="http://www.w3.org/1999/xlink" x="0px" y="0px"
	 viewBox="0 0 24 24" style="enable-background:new 0 0 24 24;" xml:space="preserve">
<style type="text/css">
	.st0{fill:#00DBDE;}
</style>
<path class="st0" d="M13,9.4c0,0.2-0.2,0.4-0.4,0.4h-0.9c-0.2,0-0.4,0.1-0.5,0.4c0,0.2,0.1,0.4,0.3,0.5l0.9,0.4
	c0.2,0.1,0.3,0.3,0.2,0.5c-0.1,0.2-0.3,0.3-0.5,0.2l-1-0.4c-0.1-0.1-0.3,0-0.4,0.1c-0.4,0.7-1.2,1.3-2.3,1.4
	c-1.1-0.1-1.9-0.8-2.3-1.5c-0.1-0.1-0.2-0.1-0.3-0.1l-1,0.4c-0.2,0.1-0.4,0-0.5-0.2c-0.1-0.2,0-0.4,0.2-0.5l0.9-0.4
	c0.2-0.1,0.3-0.3,0.3-0.5c0-0.3-0.3-0.4-0.5-0.4H4.4C4.2,9.8,4,9.6,4,9.4C4,9.2,4.2,9,4.4,9h0.9c0.2,0,0.4-0.1,0.5-0.4
	c0-0.2-0.1-0.4-0.3-0.5L4.6,7.8C4.4,7.7,4.3,7.5,4.4,7.3C4.5,7.1,4.7,7,4.9,7.1l0.9,0.3c0.1,0,0.3,0,0.4-0.2
	c0.1-0.2,0.1-0.3,0.2-0.4C7,7.2,7.7,7.4,8.5,7.4c0.8,0,1.5-0.2,2.1-0.6c0.1,0.1,0.2,0.3,0.2,0.4c0.1,0.2,0.2,0.2,0.3,0.2l0.9-0.3
	c0.2-0.1,0.4,0,0.5,0.2c0.1,0.2,0,0.4-0.2,0.5l-0.8,0.3c-0.2,0.1-0.3,0.2-0.3,0.5c0,0.2,0.2,0.4,0.5,0.4h0.9C12.8,9,13,9.2,13,9.4z
	 M7.1,5c0.1,0,0.2,0.1,0.3,0.2C7.6,5.6,7.3,6,7,6.3C7.5,6.5,8,6.6,8.5,6.6c0.5,0,1-0.1,1.5-0.3C9.7,6,9.4,5.6,9.6,5.2
	C9.7,5.1,9.8,5.1,9.9,5c0.2-0.1,0.4-0.3,0.4-0.5c0-0.3-0.2-0.5-0.5-0.5C9.5,4,9.2,4.3,9.3,4.7c0,0.1,0,0.3-0.1,0.4
	C9.1,5.3,8.8,5.4,8.5,5.4C8.2,5.4,7.9,5.3,7.8,5C7.7,4.9,7.7,4.8,7.7,4.7C7.8,4.3,7.5,4,7.2,4C6.9,4,6.7,4.2,6.7,4.5
	C6.7,4.8,6.8,5,7.1,5z M21.2,19.8C21.7,19,22,18,22,17c0-2.8-2.2-5-5-5s-5,2.2-5,5s2.2,5,5,5c1,0,2-0.3,2.8-0.8l2.8,2.8l1.4-1.4
	L21.2,19.8z M17,20c-1.7,0-3-1.3-3-3s1.3-3,3-3s3,1.3,3,3S18.7,20,17,20z M12.1,22H5l2.6-3h2.7C10.6,20.2,11.3,21.2,12.1,22z M10,17
	H0V0h22v12.1c-0.6-0.6-1.3-1.1-2-1.4V2H2v13h8.3C10.1,15.6,10,16.3,10,17z"/>
</svg>
