<?xml version="1.0" encoding="utf-8"?>
<!-- Generator: Adobe Illustrator 21.1.0, SVG Export Plug-In . SVG Version: 6.00 Build 0)  -->
<svg version="1.1" id="Ebene_1" xmlns="http://www.w3.org/2000/svg" xmlns:xlink="http://www.w3.org/1999/xlink" x="0px" y="0px"
	 viewBox="0 0 24 24" style="enable-background:new 0 0 24 24;" xml:space="preserve">
<style type="text/css">
	.st0{fill:#00DBDE;}
</style>
<path class="st0" d="M13.6,24H2c-1.1,0-2-0.9-2-2V2c0-1.1,0.9-2,2-2h14c1.1,0,2,0.9,2,2v4h-2V3H2v17h11v2.5C13,23,13.2,23.7,13.6,24
	z M22.5,7C23.3,7,24,7.7,24,8.5v14c0,0.8-0.7,1.5-1.5,1.5h-7c-0.8,0-1.5-0.7-1.5-1.5v-14C14,7.7,14.7,7,15.5,7H22.5z M9,21
	c0.6,0,1,0.4,1,1s-0.4,1-1,1s-1-0.4-1-1S8.4,21,9,21z M19,23c-0.6,0-1-0.4-1-1s0.4-1,1-1c0.6,0,1,0.4,1,1S19.6,23,19,23z M23,20V10
	h-8v10H23z M19.5,9C19.8,9,20,8.8,20,8.5S19.8,8,19.5,8h-1C18.2,8,18,8.2,18,8.5S18.2,9,18.5,9H19.5z"/>
</svg>
