<?xml version="1.0" encoding="utf-8"?>
<!-- Generator: Adobe Illustrator 21.1.0, SVG Export Plug-In . SVG Version: 6.00 Build 0)  -->
<svg version="1.1" id="Ebene_1" xmlns="http://www.w3.org/2000/svg" xmlns:xlink="http://www.w3.org/1999/xlink" x="0px" y="0px"
	 viewBox="0 0 24 24" style="enable-background:new 0 0 24 24;" xml:space="preserve">
<style type="text/css">
	.st0{fill:#00DBDE;}
</style>
<path class="st0" d="M4.8,5.8L4.8,5.8l0,1c0,1.6,4.4,1.6,4.4,0v-1C9,4.2,4.9,4.2,4.8,5.8z M8.3,5.9c0,0.3-0.6,0.6-1.4,0.6
	c-0.8,0-1.4-0.3-1.4-0.6s0.6-0.6,1.4-0.6C7.7,5.3,8.3,5.6,8.3,5.9z M0,6.1L0,6.1L0,6.1L11.5,0L23,6.1v5.2l-11,5.8v-5.3l9.9-5.2
	L11.5,1.2L1.2,6.6l9.8,5.2v5.3L0,11.3C0,11.3,0,6.1,0,6.1z M23,12.5v5.8L12,24v-5.7C12,18.3,23,12.5,23,12.5z M9.3,9.1
	c0,1.6,4.4,1.6,4.4,0v-1c-0.1-1.5-4.2-1.5-4.3,0h0V9.1z M11.5,7.8c0.8,0,1.4,0.3,1.4,0.6c0,0.3-0.6,0.6-1.4,0.6s-1.4-0.3-1.4-0.6
	S10.7,7.8,11.5,7.8z M13.7,4.4v-1c-0.1-1.5-4.2-1.5-4.3,0h0v1C9.3,6,13.7,6,13.7,4.4z M11.5,3c0.8,0,1.4,0.3,1.4,0.6
	c0,0.3-0.6,0.6-1.4,0.6c-0.8,0-1.4-0.3-1.4-0.6S10.7,3,11.5,3z M18.2,6.7v-1c-0.1-1.5-4.2-1.5-4.3,0h0v1C13.8,8.3,18.3,8.3,18.2,6.7
	z M14.7,5.9c0-0.3,0.6-0.6,1.4-0.6c0.8,0,1.4,0.3,1.4,0.6S16.8,6.5,16,6.5C15.3,6.5,14.7,6.2,14.7,5.9z M11,18.3V24L0,18.3v-5.9
	L11,18.3z"/>
</svg>
