<?xml version="1.0" encoding="utf-8"?>
<!-- Generator: Adobe Illustrator 21.1.0, SVG Export Plug-In . SVG Version: 6.00 Build 0)  -->
<svg version="1.1" id="Ebene_1" xmlns="http://www.w3.org/2000/svg" xmlns:xlink="http://www.w3.org/1999/xlink" x="0px" y="0px"
	 viewBox="0 0 24 24" style="enable-background:new 0 0 24 24;" xml:space="preserve">
<style type="text/css">
	.st0{fill:#00DBDE;}
</style>
<path class="st0" d="M22.5,7C23.3,7,24,7.7,24,8.5v14c0,0.8-0.7,1.5-1.5,1.5h-7c-0.8,0-1.5-0.7-1.5-1.5v-14C14,7.7,14.7,7,15.5,7
	H22.5z M13.6,24H4l2.6-3H13v1.8C13,23.4,13.3,23.9,13.6,24z M19,23c-0.6,0-1-0.4-1-1s0.4-1,1-1c0.6,0,1,0.4,1,1S19.6,23,19,23z
	 M23,20V10h-8v10H23z M22,6h-2V2H2v15h11v2H0V0h22V6z M19.5,9C19.8,9,20,8.8,20,8.5S19.8,8,19.5,8h-1C18.2,8,18,8.2,18,8.5
	S18.2,9,18.5,9H19.5z"/>
</svg>
