<svg id="Layer_1" data-name="Layer 1" xmlns="http://www.w3.org/2000/svg" viewBox="0 0 90 110.49"><defs><style>.cls-1{fill:#00dbde;}</style></defs><title>stampready</title><path class="cls-1" d="M23.37,24.26a5.56,5.56,0,0,0-3,2.39c-1.08,1.7-1.14,3-1.14,23.54s.06,21.85,1.14,24c2.06,4,3,4.31,24.38,8.79,22,4.6,22.78,4.66,24.84,1.25,1.08-1.7,1.14-3,1.14-23.66,0-21.62-.06-21.84-1.32-24.11A9.71,9.71,0,0,0,65.89,33c-1.43-.8-9.16-2.67-20.6-5.05-10.07-2-18.72-3.86-19.17-4A8,8,0,0,0,23.37,24.26Zm22.2,6.13c10.13,2.22,19.06,4.37,19.86,4.88,2.86,1.87,3,3.12,3,25.65,0,23.32,0,23.43-3.66,23.43-3.15,0-38.57-7.71-40.17-8.74-3-2-3.09-3.06-3.09-25.87,0-20.26.06-21,1.14-22.13a4.61,4.61,0,0,1,2.81-1.13C26.4,26.48,35.44,28.24,45.57,30.39Z"/><path class="cls-1" d="M39.85,44.18a6.13,6.13,0,0,0-3.38,3.4c-1.66,4.49.46,7,7.56,9.2,5.66,1.7,7.21,3.12,6.29,5.84-1.09,3.29-7.09,3.86-11.21,1.08-2-1.36-2.06-1.36-3-.34-1.26,1.42-.74,2.1,2.8,3.74,8.19,3.75,16.6-.85,14.6-8-.69-2.39-2.75-3.75-8-5.34a26.37,26.37,0,0,1-5-2c-1.88-1.31-1.66-3.35.46-4.88s6.07-1.25,8.64.62c1.32,1,1.83,1.08,2.52.57,1.32-1.14,1-2.1-1.2-3.41A12.32,12.32,0,0,0,39.85,44.18Z"/></svg>