<svg id="Ebene_1" data-name="Ebene 1" xmlns="http://www.w3.org/2000/svg" viewBox="0 0 24 24"><defs><style>.cls-1{fill:#00dbde;}</style></defs><title>stampready</title><path class="cls-1" d="M3.59.12A2.21,2.21,0,0,0,2.41,1C2,1.69,2,2.19,2,10.05s0,8.37.44,9.19c.81,1.53,1.18,1.65,9.58,3.36,8.64,1.76,9,1.79,9.76.48.42-.65.45-1.15.45-9.06,0-8.27,0-8.36-.52-9.23a3.83,3.83,0,0,0-1.39-1.32A60.87,60.87,0,0,0,12.2,1.54C8.25.77,4.85.06,4.67,0A3,3,0,0,0,3.59.12Zm8.72,2.35c4,.85,7.49,1.67,7.8,1.87,1.13.72,1.18,1.19,1.18,9.82,0,8.93,0,9-1.44,9-1.23,0-15.15-2.95-15.78-3.35C2.9,19,2.86,18.61,2.86,9.88c0-7.76,0-8,.45-8.47A1.87,1.87,0,0,1,4.41,1C4.78,1,8.33,1.65,12.31,2.47Z" transform="translate(-1.97 0)"/><path class="cls-1" d="M10.07,7.75a2.36,2.36,0,0,0-1.33,1.3c-.65,1.72.18,2.68,3,3.52,2.22.65,2.83,1.2,2.47,2.24-.43,1.26-2.79,1.48-4.41.41C9,14.7,9,14.7,8.6,15.09c-.5.55-.29.81,1.1,1.43,3.21,1.44,6.52-.32,5.73-3.06-.27-.91-1.08-1.43-3.14-2a10.73,10.73,0,0,1-2-.77c-.73-.5-.65-1.28.19-1.87A3.25,3.25,0,0,1,13.9,9c.52.38.72.41,1,.22.52-.44.39-.8-.47-1.31A5,5,0,0,0,10.07,7.75Z" transform="translate(-1.97 0)"/></svg>
