<?xml version="1.0" encoding="utf-8"?>
<!-- Generator: Adobe Illustrator 18.1.1, SVG Export Plug-In . SVG Version: 6.00 Build 0)  -->
<svg version="1.1" id="Layer_1" xmlns="http://www.w3.org/2000/svg" xmlns:xlink="http://www.w3.org/1999/xlink" x="0px" y="0px"
	 viewBox="0 0 200 200" enable-background="new 0 0 200 200" xml:space="preserve">
<g id="Ellipse_1">
	<g>
		<circle fill="#FFFFFF" cx="105.4" cy="105" r="68.6"/>
	</g>
</g>
<g id="Shape_1">
	<g>
		<path fill="#F18D00" d="M99.7,2.8c-54,0-97.8,43.8-97.8,97.8c0,54,43.8,97.8,97.8,97.8c54,0,97.8-43.8,97.8-97.8
			C197.5,46.6,153.7,2.8,99.7,2.8z M110.8,122.3V107c9.5-1.8,16.7-10.1,16.7-20.1c0-11.3-9.2-20.5-20.5-20.5
			c-11.3,0-20.5,9.2-20.5,20.5v20.5h20.5v15.2H86.6V146H71.4v-23.4H48.8v-15.2h22.6V87c0-19.6,16-35.6,35.6-35.6
			c19.6,0,35.6,16,35.6,35.6C142.7,105.3,128.7,120.4,110.8,122.3z"/>
	</g>
</g>
</svg>
